<svg xmlns="http://www.w3.org/2000/svg" xmlns:xlink="http://www.w3.org/1999/xlink" width="1080" zoomAndPan="magnify" viewBox="0 0 810 809.999993" height="1080" preserveAspectRatio="xMidYMid meet" version="1.0"><defs><g/><clipPath id="id1"><path d="M 38.5 40.5 L 771.25 40.5 L 771.25 769.5 L 38.5 769.5 Z M 38.5 40.5 " clip-rule="nonzero"/></clipPath></defs><path fill="#ffffff" d="M 75 0 L 735 0 C 776.421875 0 810 33.578125 810 75 L 810 735 C 810 776.421875 776.421875 810 735 810 L 75 810 C 33.578125 810 0 776.421875 0 735 L 0 75 C 0 33.578125 33.578125 0 75 0 " fill-opacity="1" fill-rule="nonzero"/><g clip-path="url(#id1)"><path fill="#000000" d="M 105.976562 40.503906 L 703.773438 40.503906 C 741.039062 40.503906 771.25 70.722656 771.25 108.003906 L 771.25 701.996094 C 771.25 739.277344 741.039062 769.496094 703.773438 769.496094 L 105.976562 769.496094 C 68.710938 769.496094 38.5 739.277344 38.5 701.996094 L 38.5 108.003906 C 38.5 70.722656 68.710938 40.503906 105.976562 40.503906 " fill-opacity="1" fill-rule="nonzero"/></g><g fill="#ffffff" fill-opacity="1"><g transform="translate(55.405189, 722.972871)"><g><path d="M 37.546875 -615.867188 L 37.546875 -17.398438 C 37.546875 -6.410156 42.585938 0 53.117188 0 L 329.226562 0 C 336.550781 0 342.503906 -5.035156 342.503906 -15.570312 L 342.503906 -94.785156 C 342.503906 -105.316406 336.550781 -110.351562 329.226562 -110.351562 L 159.347656 -110.351562 L 159.347656 -265.578125 L 293.050781 -265.578125 C 301.753906 -265.578125 307.703125 -270.15625 307.703125 -281.148438 L 307.703125 -359.445312 C 307.703125 -370.894531 300.835938 -375.472656 293.050781 -375.472656 L 159.347656 -375.472656 L 159.347656 -522.457031 L 326.9375 -522.457031 C 335.179688 -522.457031 339.757812 -527.953125 339.757812 -538.941406 L 339.757812 -616.78125 C 339.757812 -628.230469 335.179688 -633.726562 326.9375 -633.726562 L 53.117188 -633.726562 C 43.5 -633.726562 37.546875 -626.855469 37.546875 -615.867188 Z M 37.546875 -615.867188 "/></g></g><g transform="translate(413.020369, 722.972871)"><g><path d="M 37.546875 -17.398438 C 37.546875 -6.410156 42.585938 0 53.117188 0 L 314.117188 0 C 322.355469 0 326.9375 -5.496094 326.9375 -16.484375 L 326.9375 -94.785156 C 326.9375 -105.773438 322.355469 -110.351562 314.117188 -110.351562 L 159.347656 -110.351562 L 159.347656 -615.867188 C 159.347656 -626.855469 154.769531 -633.726562 144.238281 -633.726562 L 52.65625 -633.726562 C 42.585938 -633.726562 37.546875 -626.855469 37.546875 -615.867188 Z M 37.546875 -17.398438 "/></g></g></g></svg>