<svg xmlns="http://www.w3.org/2000/svg" xmlns:xlink="http://www.w3.org/1999/xlink" width="1080" zoomAndPan="magnify" viewBox="0 0 810 809.999993" height="1080" preserveAspectRatio="xMidYMid meet" version="1.0"><path fill="#ffffff" d="M 404.824219 73.03125 C 512.90625 73.03125 525.683594 73.386719 568.457031 75.339844 C 607.855469 77.113281 629.328125 83.679688 643.703125 89.359375 C 662.515625 96.636719 676.003906 105.507812 690.203125 119.707031 C 704.402344 133.90625 713.097656 147.394531 720.550781 166.207031 C 726.054688 180.402344 732.621094 201.878906 734.574219 241.457031 C 736.523438 284.226562 736.878906 297.007812 736.878906 405.089844 C 736.878906 513.171875 736.523438 525.949219 734.574219 568.722656 C 732.796875 608.121094 726.230469 629.597656 720.550781 643.972656 C 713.277344 662.785156 704.402344 676.273438 690.203125 690.46875 C 676.003906 704.667969 662.515625 713.363281 643.703125 720.820312 C 629.507812 726.320312 608.03125 732.886719 568.457031 734.839844 C 525.683594 736.792969 512.90625 737.144531 404.824219 737.144531 C 296.738281 737.144531 283.960938 736.792969 241.191406 734.839844 C 201.789062 733.0625 180.316406 726.496094 165.941406 720.820312 C 147.128906 713.542969 133.640625 704.667969 119.441406 690.46875 C 105.242188 676.273438 96.546875 662.785156 89.09375 643.972656 C 83.589844 629.773438 77.023438 608.296875 75.074219 568.722656 C 73.121094 525.949219 72.765625 513.171875 72.765625 405.089844 C 72.765625 297.007812 73.121094 284.226562 75.074219 241.457031 C 76.847656 202.054688 83.414062 180.582031 89.09375 166.207031 C 96.371094 147.394531 105.242188 133.90625 119.441406 119.707031 C 133.640625 105.507812 147.128906 96.8125 165.941406 89.359375 C 180.136719 83.855469 201.613281 77.289062 241.191406 75.339844 C 283.960938 73.386719 296.738281 73.03125 404.824219 73.03125 M 404.824219 0.0898438 C 294.789062 0.0898438 281.121094 0.621094 237.816406 2.574219 C 194.691406 4.527344 165.230469 11.445312 139.496094 21.386719 C 112.875 31.679688 90.335938 45.523438 67.796875 68.0625 C 45.433594 90.601562 31.589844 113.140625 21.296875 139.761719 C 11.359375 165.496094 4.4375 194.957031 2.484375 238.082031 C 0.53125 281.210938 0 295.054688 0 404.910156 C 0 514.945312 0.53125 528.613281 2.484375 571.917969 C 4.4375 615.042969 11.359375 644.503906 21.296875 670.238281 C 31.589844 696.859375 45.433594 719.398438 67.972656 741.9375 C 90.511719 764.476562 113.050781 778.320312 139.671875 788.613281 C 165.40625 798.554688 194.867188 805.472656 237.996094 807.425781 C 281.121094 809.378906 294.964844 809.910156 405 809.910156 C 515.035156 809.910156 528.699219 809.378906 572.003906 807.425781 C 615.132812 805.472656 644.59375 798.554688 670.328125 788.613281 C 696.949219 778.320312 719.488281 764.476562 742.027344 741.9375 C 764.566406 719.398438 778.410156 696.859375 788.703125 670.238281 C 798.640625 644.503906 805.5625 615.042969 807.515625 571.917969 C 809.46875 528.789062 810 514.945312 810 404.910156 C 810 294.875 809.46875 281.210938 807.515625 237.90625 C 805.5625 194.78125 798.640625 165.320312 788.703125 139.585938 C 778.410156 112.964844 764.566406 90.425781 742.027344 67.882812 C 719.488281 45.34375 696.949219 31.503906 670.328125 21.207031 C 644.59375 11.269531 615.132812 4.347656 572.003906 2.394531 C 528.699219 0.621094 514.859375 0.0898438 404.824219 0.0898438 " fill-opacity="1" fill-rule="nonzero"/><path fill="#ffffff" d="M 404.824219 197.085938 C 289.996094 197.085938 197 290.085938 197 404.910156 C 197 519.738281 290.171875 612.914062 405 612.914062 C 519.828125 612.914062 613 519.914062 613 404.910156 C 612.824219 290.085938 519.648438 197.085938 404.824219 197.085938 M 404.824219 539.96875 C 330.28125 539.96875 269.941406 479.628906 269.941406 405.089844 C 269.941406 330.550781 330.28125 270.207031 404.824219 270.207031 C 479.363281 270.207031 539.703125 330.550781 539.703125 405.089844 C 539.882812 479.449219 479.363281 539.96875 404.824219 539.96875 " fill-opacity="1" fill-rule="nonzero"/><path fill="#ffffff" d="M 669.617188 188.921875 C 669.617188 215.722656 647.785156 237.550781 620.988281 237.550781 C 594.1875 237.550781 572.359375 215.722656 572.359375 188.921875 C 572.359375 162.125 594.1875 140.292969 620.988281 140.292969 C 647.785156 140.292969 669.617188 161.945312 669.617188 188.921875 " fill-opacity="1" fill-rule="nonzero"/></svg>