<svg xmlns="http://www.w3.org/2000/svg" xmlns:xlink="http://www.w3.org/1999/xlink" width="500" zoomAndPan="magnify" viewBox="0 0 375 374.999991" height="500" preserveAspectRatio="xMidYMid meet" version="1.0"><defs><g/></defs><path fill="#000000" d="M 60.75 0 L 314.25 0 C 330.363281 0 345.8125 6.402344 357.207031 17.792969 C 368.597656 29.1875 375 44.636719 375 60.75 L 375 314.25 C 375 330.363281 368.597656 345.8125 357.207031 357.207031 C 345.8125 368.597656 330.363281 375 314.25 375 L 60.75 375 C 44.636719 375 29.1875 368.597656 17.792969 357.207031 C 6.402344 345.8125 0 330.363281 0 314.25 L 0 60.75 C 0 27.199219 27.199219 0 60.75 0 " fill-opacity="1" fill-rule="nonzero"/><g fill="#ffffff" fill-opacity="1"><g transform="translate(14.701175, 190.322364)"><g><path d="M 9.289062 -152.363281 L 9.289062 -4.304688 C 9.289062 -1.585938 10.535156 0 13.140625 0 L 81.449219 0 C 83.261719 0 84.734375 -1.246094 84.734375 -3.851562 L 84.734375 -23.449219 C 84.734375 -26.054688 83.261719 -27.300781 81.449219 -27.300781 L 39.421875 -27.300781 L 39.421875 -65.703125 L 72.5 -65.703125 C 74.652344 -65.703125 76.125 -66.835938 76.125 -69.554688 L 76.125 -88.925781 C 76.125 -91.757812 74.425781 -92.890625 72.5 -92.890625 L 39.421875 -92.890625 L 39.421875 -129.253906 L 80.882812 -129.253906 C 82.921875 -129.253906 84.054688 -130.613281 84.054688 -133.332031 L 84.054688 -152.589844 C 84.054688 -155.421875 82.921875 -156.78125 80.882812 -156.78125 L 13.140625 -156.78125 C 10.761719 -156.78125 9.289062 -155.082031 9.289062 -152.363281 Z M 9.289062 -152.363281 "/></g></g><g transform="translate(103.17287, 190.322364)"><g><path d="M 9.289062 -4.304688 C 9.289062 -1.585938 10.535156 0 13.140625 0 L 77.710938 0 C 79.75 0 80.882812 -1.359375 80.882812 -4.078125 L 80.882812 -23.449219 C 80.882812 -26.167969 79.75 -27.300781 77.710938 -27.300781 L 39.421875 -27.300781 L 39.421875 -152.363281 C 39.421875 -155.082031 38.289062 -156.78125 35.683594 -156.78125 L 13.027344 -156.78125 C 10.535156 -156.78125 9.289062 -155.082031 9.289062 -152.363281 Z M 9.289062 -4.304688 "/></g></g><g transform="translate(187.679763, 190.322364)"><g><path d="M 9.289062 -4.304688 C 9.289062 -1.585938 10.535156 0 13.140625 0 L 77.710938 0 C 79.75 0 80.882812 -1.359375 80.882812 -4.078125 L 80.882812 -23.449219 C 80.882812 -26.167969 79.75 -27.300781 77.710938 -27.300781 L 39.421875 -27.300781 L 39.421875 -152.363281 C 39.421875 -155.082031 38.289062 -156.78125 35.683594 -156.78125 L 13.027344 -156.78125 C 10.535156 -156.78125 9.289062 -155.082031 9.289062 -152.363281 Z M 9.289062 -4.304688 "/></g></g></g><g fill="#ffffff" fill-opacity="1"><g transform="translate(272.186629, 190.322364)"><g><path d="M 9.289062 -152.363281 L 9.289062 -4.304688 C 9.289062 -1.585938 10.535156 0 13.140625 0 L 81.449219 0 C 83.261719 0 84.734375 -1.246094 84.734375 -3.851562 L 84.734375 -23.449219 C 84.734375 -26.054688 83.261719 -27.300781 81.449219 -27.300781 L 39.421875 -27.300781 L 39.421875 -65.703125 L 72.5 -65.703125 C 74.652344 -65.703125 76.125 -66.835938 76.125 -69.554688 L 76.125 -88.925781 C 76.125 -91.757812 74.425781 -92.890625 72.5 -92.890625 L 39.421875 -92.890625 L 39.421875 -129.253906 L 80.882812 -129.253906 C 82.921875 -129.253906 84.054688 -130.613281 84.054688 -133.332031 L 84.054688 -152.589844 C 84.054688 -155.421875 82.921875 -156.78125 80.882812 -156.78125 L 13.140625 -156.78125 C 10.761719 -156.78125 9.289062 -155.082031 9.289062 -152.363281 Z M 9.289062 -152.363281 "/></g></g></g><g fill="#ffffff" fill-opacity="1"><g transform="translate(15.096864, 337.751298)"><g><path d="M 25.402344 -33.617188 C 25.402344 -36.15625 24.894531 -37.089844 22.523438 -37.089844 L 7.113281 -37.089844 C 4.742188 -37.089844 4.234375 -35.902344 4.234375 -33.023438 L 4.234375 -28.535156 C 4.234375 -12.617188 14.480469 1.863281 34.886719 1.863281 C 53.601562 1.863281 66.132812 -11.6875 66.132812 -27.519531 C 66.132812 -48.945312 53.515625 -58.175781 37.683594 -70.453125 C 30.144531 -76.296875 25.148438 -79.9375 25.148438 -87.980469 C 25.148438 -95.6875 30.0625 -98.652344 34.296875 -98.652344 C 40.390625 -98.652344 43.441406 -93.824219 43.441406 -87.980469 L 43.441406 -83.238281 C 43.441406 -80.867188 43.78125 -80.023438 45.894531 -80.023438 L 61.054688 -80.023438 C 63.765625 -80.023438 64.355469 -80.867188 64.355469 -83.238281 L 64.355469 -88.066406 C 64.355469 -106.78125 51.824219 -118.976562 34.296875 -118.976562 C 22.441406 -118.976562 4.234375 -110.589844 4.234375 -88.574219 C 4.234375 -69.183594 12.195312 -63.59375 29.890625 -49.199219 C 40.308594 -40.730469 44.710938 -36.921875 44.710938 -28.707031 C 44.710938 -22.523438 40.390625 -18.628906 35.058594 -18.628906 C 30.738281 -18.628906 25.402344 -21.339844 25.402344 -29.808594 Z M 25.402344 -33.617188 "/></g></g></g><g fill="#ffffff" fill-opacity="1"><g transform="translate(84.532335, 337.751298)"><g><path d="M 0.761719 -114.0625 L 0.761719 -99.667969 C 0.761719 -97.636719 1.777344 -96.621094 3.21875 -96.621094 L 18.96875 -96.621094 L 18.96875 -2.964844 C 18.96875 -1.015625 19.984375 0 21.425781 0 L 39.121094 0 C 40.476562 0 41.578125 -1.015625 41.578125 -2.964844 L 41.578125 -96.621094 L 57.328125 -96.621094 C 58.769531 -96.621094 59.785156 -97.636719 59.785156 -99.667969 L 59.785156 -114.148438 C 59.785156 -116.179688 58.769531 -117.195312 57.328125 -117.195312 L 3.21875 -117.195312 C 1.777344 -117.195312 0.761719 -116.09375 0.761719 -114.0625 Z M 0.761719 -114.0625 "/></g></g></g><g fill="#ffffff" fill-opacity="1"><g transform="translate(144.992002, 337.751298)"><g><path d="M 5.082031 -27.519531 C 5.082031 -9.570312 19.644531 1.863281 36.582031 1.863281 C 53.601562 1.863281 68.335938 -9.144531 68.335938 -27.519531 L 68.335938 -89.589844 C 68.335938 -108.050781 53.601562 -118.976562 36.582031 -118.976562 C 19.644531 -118.976562 5.082031 -107.964844 5.082031 -89.589844 Z M 27.605469 -88.320312 C 27.605469 -93.738281 30.992188 -98.652344 36.75 -98.652344 C 42.425781 -98.652344 45.8125 -93.738281 45.8125 -88.320312 L 45.8125 -28.199219 C 45.8125 -22.863281 42.425781 -18.542969 36.582031 -18.542969 C 30.824219 -18.542969 27.605469 -23.371094 27.605469 -28.707031 Z M 27.605469 -88.320312 "/></g></g></g><g fill="#ffffff" fill-opacity="1"><g transform="translate(218.407311, 337.751298)"><g><path d="M 9.738281 0 L 26.675781 0 C 28.535156 0 29.46875 -1.183594 29.46875 -3.132812 L 29.46875 -45.640625 L 37.003906 -45.640625 L 49.199219 -2.710938 C 49.621094 -0.507812 50.214844 0 51.910156 0 L 69.605469 0 C 71.214844 0 71.808594 -1.777344 71.386719 -3.300781 L 56.988281 -51.0625 C 64.609375 -56.058594 70.285156 -64.609375 70.285156 -76.890625 L 70.285156 -86.628906 C 70.285156 -103.476562 57.160156 -117.195312 39.714844 -117.195312 L 9.824219 -117.195312 C 8.042969 -117.195312 6.945312 -115.925781 6.945312 -113.894531 L 6.945312 -3.132812 C 6.945312 -1.183594 7.789062 0 9.738281 0 Z M 29.46875 -96.621094 L 37.9375 -96.621094 C 43.78125 -96.621094 47.675781 -92.722656 47.675781 -86.628906 L 47.675781 -74.941406 C 47.675781 -69.183594 44.117188 -64.863281 38.019531 -64.863281 L 29.46875 -64.863281 Z M 29.46875 -96.621094 "/></g></g></g><g fill="#ffffff" fill-opacity="1"><g transform="translate(293.770201, 337.751298)"><g><path d="M 6.945312 -113.894531 L 6.945312 -3.21875 C 6.945312 -1.183594 7.875 0 9.824219 0 L 60.882812 0 C 62.238281 0 63.339844 -0.929688 63.339844 -2.878906 L 63.339844 -17.527344 C 63.339844 -19.476562 62.238281 -20.40625 60.882812 -20.40625 L 29.46875 -20.40625 L 29.46875 -49.113281 L 54.195312 -49.113281 C 55.804688 -49.113281 56.90625 -49.960938 56.90625 -51.992188 L 56.90625 -66.472656 C 56.90625 -68.589844 55.632812 -69.4375 54.195312 -69.4375 L 29.46875 -69.4375 L 29.46875 -96.621094 L 60.460938 -96.621094 C 61.984375 -96.621094 62.832031 -97.636719 62.832031 -99.667969 L 62.832031 -114.0625 C 62.832031 -116.179688 61.984375 -117.195312 60.460938 -117.195312 L 9.824219 -117.195312 C 8.042969 -117.195312 6.945312 -115.925781 6.945312 -113.894531 Z M 6.945312 -113.894531 "/></g></g></g></svg>