<svg xmlns="http://www.w3.org/2000/svg" xmlns:xlink="http://www.w3.org/1999/xlink" width="1080" zoomAndPan="magnify" viewBox="0 0 810 809.999993" height="1080" preserveAspectRatio="xMidYMid meet" version="1.0"><path fill="#ffffff" d="M 405 0 C 181.285156 0 0 181.285156 0 405 C 0 628.714844 181.285156 810 405 810 C 628.714844 810 810 628.714844 810 405 C 809.648438 181.285156 628.363281 0 405 0 Z M 623.105469 248.609375 L 544.207031 618.546875 C 540.351562 637.128906 518.609375 645.195312 503.53125 633.972656 L 316.285156 494.414062 L 523.167969 307.519531 C 523.167969 307.519531 537.195312 295.949219 533.335938 292.441406 C 529.128906 288.234375 513.703125 297.351562 505.988281 302.609375 C 497.921875 308.570312 252.46875 463.558594 252.46875 463.558594 L 127.988281 424.988281 C 113.960938 420.777344 113.960938 401.492188 134.296875 393.078125 L 591.546875 217.050781 C 611.53125 207.234375 627.3125 229.675781 623.105469 248.609375 Z M 623.105469 248.609375 " fill-opacity="1" fill-rule="nonzero"/></svg>