<svg xmlns="http://www.w3.org/2000/svg" xmlns:xlink="http://www.w3.org/1999/xlink" width="1080" zoomAndPan="magnify" viewBox="0 0 810 809.999993" height="1080" preserveAspectRatio="xMidYMid meet" version="1.0"><path fill="#ffffff" d="M 692.550781 117.855469 C 616.816406 41.714844 515.96875 0 408.644531 0 C 187.515625 0 7.289062 180.226562 7.289062 401.355469 C 7.289062 472.230469 25.921875 541.078125 60.75 601.828125 L 4.050781 810 L 216.675781 754.109375 C 275.398438 786.105469 341.414062 803.113281 408.644531 803.113281 C 629.773438 803.113281 810 622.890625 810 401.761719 C 810 294.433594 768.285156 193.589844 692.550781 117.855469 Z M 408.644531 735.074219 C 348.703125 735.074219 289.980469 718.875 238.546875 688.5 L 226.394531 681.210938 L 100.035156 714.421875 L 133.648438 591.300781 L 125.550781 578.746094 C 92.339844 525.691406 74.519531 464.128906 74.519531 401.355469 C 74.519531 217.484375 224.371094 67.636719 408.238281 67.636719 C 497.339844 67.636719 581.175781 102.464844 643.949219 165.644531 C 707.128906 228.824219 741.554688 312.660156 741.554688 401.761719 C 742.363281 585.628906 592.515625 735.074219 408.644531 735.074219 Z M 591.703125 485.59375 C 581.578125 480.734375 532.171875 456.433594 523.261719 452.789062 C 513.945312 449.550781 507.464844 447.929688 500.578125 457.648438 C 493.695312 467.773438 474.660156 490.453125 468.988281 496.933594 C 463.320312 503.820312 457.246094 504.628906 447.121094 499.363281 C 436.996094 494.503906 404.59375 483.570312 366.523438 449.550781 C 336.554688 422.820312 316.710938 390.015625 310.636719 379.890625 C 304.964844 369.765625 309.824219 364.5 315.089844 359.234375 C 319.542969 354.78125 325.214844 347.488281 330.074219 341.820312 C 334.933594 336.148438 336.960938 331.695312 340.199219 325.214844 C 343.441406 318.328125 341.820312 312.660156 339.390625 307.800781 C 336.960938 302.941406 316.710938 253.53125 308.609375 233.28125 C 300.511719 213.839844 292.003906 216.269531 285.929688 215.863281 C 279.855469 215.863281 273.375 215.863281 266.488281 215.863281 C 259.605469 215.863281 249.074219 218.296875 239.761719 228.421875 C 230.851562 238.546875 204.929688 262.84375 204.929688 312.253906 C 204.929688 361.664062 240.976562 409.453125 245.835938 415.933594 C 250.695312 422.820312 316.710938 524.070312 417.148438 567.40625 C 441.046875 577.933594 459.675781 584.011719 474.253906 588.464844 C 498.148438 596.160156 520.019531 594.945312 537.433594 592.515625 C 556.875 589.679688 596.96875 568.214844 605.070312 544.726562 C 613.574219 521.234375 613.574219 501.390625 610.738281 496.933594 C 607.90625 492.480469 601.828125 490.453125 591.703125 485.59375 Z M 591.703125 485.59375 " fill-opacity="1" fill-rule="nonzero"/></svg>